<?xml version="1.0" encoding="UTF-8" standalone="no"?><!-- Created with Inkscape (http://www.inkscape.org/) -->

<svg xmlns:dc="http://purl.org/dc/elements/1.1/" xmlns:cc="http://creativecommons.org/ns#"
    xmlns:rdf="http://www.w3.org/1999/02/22-rdf-syntax-ns#" xmlns="http://www.w3.org/2000/svg" xmlns:sodipodi="http://sodipodi.sourceforge.net/DTD/sodipodi-0.dtd"
    xmlns:inkscape="http://www.inkscape.org/namespaces/inkscape" width="52.916668mm" height="52.916668mm"
    viewBox="0 0 52.916668 52.916668" version="1.1" id="svg8" sodipodi:docname="pointer_circle.svg"
    inkscape:version="0.92.4 (5da689c313, 2019-01-14)">
    <defs id="defs2" />
    <sodipodi:namedview id="base" pagecolor="#ffffff" bordercolor="#666666" borderopacity="1.0"
        inkscape:pageopacity="0.0" inkscape:pageshadow="2" inkscape:zoom="1.979899" inkscape:cx="-77.294308"
        inkscape:cy="61.166887" inkscape:document-units="mm" inkscape:current-layer="layer1" showgrid="false"
        inkscape:window-width="2560" inkscape:window-height="1381" inkscape:window-x="1920" inkscape:window-y="0"
        inkscape:window-maximized="1" showborder="false" />
    <metadata id="metadata5">
        <rdf:RDF>
            <cc:Work rdf:about="">
                <dc:format>image/svg+xml</dc:format>
                <dc:type rdf:resource="http://purl.org/dc/dcmitype/StillImage" />
                <dc:title></dc:title>
            </cc:Work>
        </rdf:RDF>
    </metadata>
    <g inkscape:label="Layer 1" inkscape:groupmode="layer" id="layer1" transform="translate(-18.520834,-19.943453)">
        <path style="fill:#ffac00;fill-opacity:1;stroke-width:0.27319103"
            d="M 100 68 A 31.999998 31.999998 0 0 0 68 100 A 31.999998 31.999998 0 0 0 100 132 A 31.999998 31.999998 0 0 0 132 100 A 31.999998 31.999998 0 0 0 100 68 z M 100 71 A 29.000001 29.000001 0 0 1 129 100 A 29.000001 29.000001 0 0 1 100 129 A 29.000001 29.000001 0 0 1 71 100 A 29.000001 29.000001 0 0 1 100 71 z "
            transform="matrix(0.26458333,0,0,0.26458333,18.520834,19.943453)" id="path10" />
    </g>
</svg>
